<svg xmlns="http://www.w3.org/2000/svg" width="600" height="400"><defs><pattern id="curtain" width="28" height="400" patternUnits="userSpaceOnUse"><rect width="28" height="400" fill="#ae173d"/><rect width="7" height="400" fill="#7d1632"/><rect x="20" width="8" height="400" fill="#d02e50"/></pattern></defs><rect width="600" height="400" fill="url(#curtain)"/><rect y="286" width="600" height="114" fill="#3a7047"/><path d="M0 330Q80 190 110 350Q180 200 220 350Q270 230 300 340Q390 210 450 350" fill="#266343"/><path d="M315 400L330 238L435 222L535 400" fill="#1e304b"/><ellipse cx="410" cy="163" rx="55" ry="75" fill="#d4a183"/><path d="M352 160Q355 68 420 88Q475 106 465 160L442 122L366 128" fill="#24202a"/><rect x="380" y="240" width="62" height="50" fill="#f2e8df"/><circle cx="500" cy="317" r="24" fill="#dc3655"/><circle cx="555" cy="345" r="30" fill="#df9273"/></svg>
